<svg xmlns="http://www.w3.org/2000/svg" width="174" height="39" fill="none"><g fill="#fff" clip-path="url(#a)"><path d="M15.818 32c8.737 0 15.819-7.163 15.819-16V4.8c0-1.273-.5-2.494-1.39-3.394A4.718 4.718 0 0 0 26.89 0H16.61v7.02c0 1.6.097 3.26.927 4.623a7.96 7.96 0 0 0 2.332 2.452 7.857 7.857 0 0 0 3.129 1.25l.303.05a.645.645 0 0 1 0 1.211l-.303.05a7.878 7.878 0 0 0-4.318 2.238 8.032 8.032 0 0 0-2.213 4.367l-.049.306a.64.64 0 0 1-.599.433.627.627 0 0 1-.598-.433l-.05-.306a8.054 8.054 0 0 0-1.235-3.165 7.95 7.95 0 0 0-2.424-2.358c-1.348-.84-2.988-.938-4.571-.938H.02C.432 25.265 7.347 32 15.817 32Z"/><path d="M0 15.2h6.94c1.583 0 3.223-.098 4.57-.938a7.97 7.97 0 0 0 2.59-2.619c.83-1.363.927-3.022.927-4.624V0H4.745A4.718 4.718 0 0 0 1.39 1.406C.5 2.306 0 3.527 0 4.8v10.4ZM36.742 1.6c0 .424-.167.831-.464 1.131a1.573 1.573 0 0 1-2.237 0 1.61 1.61 0 0 1 0-2.262 1.573 1.573 0 0 1 2.237 0c.297.3.464.707.464 1.131Zm130.702 8.083c4.422 0 6.556 3.124 6.556 6.743v6.796h-4.628v-5.99c0-1.64-.591-2.994-2.288-2.994-1.696 0-2.262 1.354-2.262 2.994v5.989h-4.627v-5.989c0-1.64-.566-2.994-2.263-2.994s-2.288 1.354-2.288 2.994v5.989h-4.627v-6.796c0-3.619 2.133-6.743 6.555-6.743 2.417 0 4.165.964 4.962 2.552.848-1.588 2.7-2.552 4.91-2.552v.001Zm-24.743 9.373c1.491 0 2.134-1.38 2.134-3.02v-5.833h4.627v6.405c0 3.827-2.211 7.004-6.761 7.004-4.551 0-6.761-3.176-6.761-7.004v-6.405h4.627v5.832c0 1.64.643 3.021 2.134 3.021Zm-13.565 4.582c-2.905 0-4.782-1.016-5.888-2.994l3.343-1.9c.462.832 1.156 1.249 2.313 1.249.951 0 1.388-.339 1.388-.755 0-1.588-6.787.026-6.787-5.024 0-2.448 2.057-4.427 5.553-4.427 3.059 0 4.731 1.51 5.476 2.968l-3.342 1.927c-.282-.781-1.157-1.25-2.031-1.25-.668 0-1.028.286-1.028.677 0 1.614 6.787.13 6.787 5.025 0 2.733-2.648 4.504-5.784 4.504Zm-16.168 5.572h-4.628V16.686c0-3.984 2.957-6.873 7.07-6.873 4.011 0 7.07 3.098 7.07 6.873 0 4.166-2.725 6.926-6.813 6.926-.951 0-1.902-.286-2.699-.73v6.328Zm2.442-9.998c1.466 0 2.443-1.146 2.443-2.5 0-1.38-.977-2.5-2.443-2.5-1.465 0-2.442 1.12-2.442 2.5 0 1.354.977 2.5 2.442 2.5ZM103.705 8.824c-1.517 0-2.776-1.276-2.776-2.812 0-1.536 1.259-2.812 2.776-2.812s2.777 1.276 2.777 2.812c0 1.536-1.26 2.812-2.777 2.812Zm-2.314 1.38h4.628v13.018h-4.628V10.203Zm-8.878 13.408c-4.011 0-7.07-3.124-7.07-6.926 0-3.775 3.059-6.899 7.07-6.899 4.01 0 7.07 3.124 7.07 6.9 0 3.801-3.06 6.925-7.07 6.925Zm0-4.4c1.465 0 2.442-1.146 2.442-2.5 0-1.38-.977-2.525-2.442-2.525-1.466 0-2.443 1.146-2.443 2.525 0 1.354.977 2.5 2.443 2.5ZM76.705 29.6c-3.188 0-5.502-1.432-6.684-3.984l3.83-2.082c.411.885 1.183 1.796 2.776 1.796 1.672 0 2.777-1.068 2.906-2.942-.617.547-1.594.963-3.06.963-3.573 0-6.453-2.785-6.453-6.691 0-3.774 3.06-6.847 7.07-6.847 4.114 0 7.07 2.89 7.07 6.873v5.156c0 4.686-3.214 7.758-7.455 7.758Zm.308-10.648c1.388 0 2.442-.964 2.442-2.396 0-1.406-1.053-2.343-2.442-2.343-1.363 0-2.442.937-2.442 2.344 0 1.432 1.08 2.394 2.442 2.394v.001Zm-14.842 4.66c-4.01 0-7.07-3.124-7.07-6.926 0-3.775 3.06-6.899 7.07-6.899s7.07 3.124 7.07 6.9c0 3.801-3.06 6.925-7.07 6.925Zm0-4.4c1.465 0 2.442-1.146 2.442-2.5 0-1.38-.977-2.525-2.442-2.525-1.466 0-2.442 1.146-2.442 2.525 0 1.354.976 2.5 2.442 2.5ZM46.674 5.648v13.147h7.662v4.427H46.03c-2.93 0-4.113-1.563-4.113-4.036V5.648h4.756Z"/></g><defs><clipPath id="a"><path fill="#fff" d="M0 0h174v32H0z"/></clipPath></defs></svg>